<svg xmlns="http://www.w3.org/2000/svg" width="26.837" height="26.838" viewBox="0 0 26.837 26.838">
  <path id="Subtraction_7" data-name="Subtraction 7" d="M-6450.162,26.838H-6467a5.006,5.006,0,0,1-5-5V5a5,5,0,0,1,5-5h16.839a5.005,5.005,0,0,1,5,5V21.837A5.006,5.006,0,0,1-6450.162,26.838Zm-7.689-22.14c0,2.211,0,4.458,0,6.632s0,4.421,0,6.632a2.653,2.653,0,0,1-.731,1.954,4.084,4.084,0,0,1-1.985.567c-.014.473-.01.954-.005,1.42v.024l0,.2a10.922,10.922,0,0,0,2.206-.213,3.418,3.418,0,0,0,1.556-.724,3.657,3.657,0,0,0,1.01-2.233,8.492,8.492,0,0,0,.067-1.356v-.008c0-.121,0-.28,0-.436V14.286c0-2.889,0-6.287,0-9.589Zm-3.706,10.639h.891c.28,0,.565,0,.846,0,0-3.275,0-6.753,0-10.632-.471,0-.949,0-1.412,0-.234,0-.469,0-.705,0v5.713q0,2.463,0,4.926h.376Z" transform="translate(6472 0)" fill="#fff" class="img-fill"/>
</svg>
