<svg xmlns="http://www.w3.org/2000/svg" xmlns:xlink="http://www.w3.org/1999/xlink" width="130" height="46" viewBox="0 0 130 46">
  <defs>
    <path id="gf1ca" d="M257.784 46.983s6.38-.728 4.192 4.01l-4.192 6.38z" />
    <path id="gf1cb" d="M328.186 53.162l-2.91 4.146h2.91z" />
    <path id="gf1cc" d="M327.498 45.103a8.902 8.902 0 0 0-1.89-2.798 8.92 8.92 0 0 0-2.799-1.89 8.523 8.523 0 0 0-3.413-.69h-4.454V23.67l-2.93 1.49v32.146h2.93v-14.65h4.425c.802 0 1.557.151 2.272.453a6.013 6.013 0 0 1 1.874 1.245 5.917 5.917 0 0 1 1.276 1.86c.312.715.468 1.48.468 2.3v.82l2.922-1.159a8.508 8.508 0 0 0-.681-3.072z" />
    <path id="gf1cd" d="M323.976 57.35s-6.126-3.428-1.158-6.236l7.795-2.981z" />
    <path id="gf1ce" d="M235.945 25.411c.837-.403 1.78-.66 2.712-.542.66-.004 1.336-.129 1.988.027-.02.855-.005 1.709-.009 2.563-.558.029-1.12-.014-1.676.063-.35.045-.727-.027-1.055.14a3.61 3.61 0 0 0-1.823 1.96c-.478 1.24-.402 2.597-.47 3.903-.067.542-.042 1.089-.047 1.635-.002 1.512 0 3.023-.001 4.534 1.498.009 2.995.013 4.494-.002.106.848.013 1.711.051 2.567-1.404.052-2.81.006-4.216.023-.116.006-.23.03-.34.072.021 7.194.004 14.39.01 21.584-.012.48.03 1.138-.032 1.616-1.164.288-2.29.71-3.453.992-.002-8.019-.003-16.214.001-24.233-.863-.075-1.73-.007-2.593-.037.516-.853 1.04-1.703 1.538-2.567.35-.009.702-.009 1.052-.009.002-1.753 0-3.506 0-5.26.023-1.781.027-3.597.535-5.322.197-.64.43-1.284.845-1.818.645-.838 1.541-1.444 2.489-1.889z" />
    <path id="gf1cf" d="M201.006 29.487c1.163-.001 2.334-.041 3.493.042-.016 1.47-.003 2.942-.007 4.412-1.164.019-2.327.004-3.49.007 0-1.487-.008-2.974.004-4.46z" />
    <path id="gf1cg" d="M243.304 29.51c1.16-.037 2.33-.056 3.49.003-.008 1.48.002 2.96-.004 4.438-1.16.003-2.321.003-3.482 0-.007-1.478.001-2.96-.004-4.44z" />
    <path id="gf1ch" d="M274.201 29.477c1.172-.001 2.346-.001 3.518.002-.001 1.47.001 2.94-.001 4.41h-3.514c-.009-1.47-.001-2.942-.003-4.412z" />
    <path id="gf1ci" d="M283.051 29.483c1.187-.011 2.375-.003 3.563-.004-.003 1.47.001 2.94-.003 4.41-1.187-.002-2.373.005-3.56-.004 0-1.468.002-2.935 0-4.402z" />
    <path id="gf1cj" d="M291.819 29.477c1.19 0 2.381-.001 3.572.002v4.408c-1.19.003-2.381.001-3.572.001v-4.41z" />
    <path id="gf1ck" d="M300.931 33.184c1.174-.86 2.324-1.752 3.485-2.629.006 3.086 0 6.171.001 9.257 1.5.003 3 0 4.498.001.005.86.002 1.72.002 2.58-1.144.003-2.287 0-3.432.002-.36.006-.723-.03-1.076.046.018 4.976.004 9.954.007 14.931-1.164.003-2.329.002-3.492.002.006-4.97-.013-9.94.008-14.907-.274-.108-.572-.066-.86-.072-.586.001-1.172.003-1.759-.003.516-.859 1.034-1.716 1.549-2.577.353 0 .705-.002 1.062-.005.004-2.208-.006-4.418.007-6.626z" />
    <path id="gf1cl" d="M210.142 39.875c3.142.014 6.29-.093 9.42.226.976.144 1.975.222 2.897.605a6.532 6.532 0 0 1 2.334 1.547c.67.646 1.24 1.421 1.546 2.306.443 1.364.54 2.812.525 4.239-.002 2.877-.002 5.753 0 8.63-1.15.003-2.299.006-3.446-.001 0-2.674.008-5.349-.006-8.02-.047-1.415-.009-2.932-.763-4.185-.54-.863-1.395-1.51-2.344-1.864-1.75-.59-3.614-.406-5.426-.495-.42.001-.848-.026-1.263.063.012 4.834.004 9.669.004 14.503-1.16-.001-2.319.006-3.478-.005-.003-5.848-.003-11.699 0-17.55z" />
    <path id="gf1cm" d="M252.473 39.872c2.105.008 4.21-.019 6.316.021.685.092 1.378.029 2.062.118 1.633.154 3.35.26 4.8 1.107 1.238.727 2.294 1.81 2.89 3.126.602 1.506.637 3.154.638 4.753-.003 2.81.003 5.622-.003 8.434-1.142.001-2.287-.003-3.43.003-.069-2.366-.012-4.737-.033-7.105-.024-1.564.119-3.208-.517-4.682-.53-1.158-1.624-2.01-2.83-2.373-1.496-.418-3.063-.374-4.602-.397-.6.063-1.203-.04-1.8.028.008 4.84.001 9.681.004 14.523-1.165.006-2.33 0-3.493.001-.003-5.85-.006-11.704-.002-17.557z" />
    <path id="gf1cn" d="M201 39.873c1.163.002 2.327-.005 3.49.005.003 5.849.003 11.698 0 17.547-1.162.016-2.325.003-3.487.007-.005-5.853-.002-11.705-.003-17.559z" />
    <path id="gf1co" d="M243.307 57.43c-.003-5.851-.005-11.705.001-17.558h3.48c.006 5.853.002 11.707.002 17.559a709.62 709.62 0 0 1-3.483 0z" />
    <path id="gf1cp" d="M274.29 39.873c1.163.002 2.328-.001 3.493.002-.003 5.852.002 11.704-.003 17.557-1.165-.001-2.328.003-3.493-.001.004-5.854 0-11.706.003-17.558z" />
    <path id="gf1cq" d="M283.029 61.763c.008-7.298-.002-14.595.005-21.893 1.164.002 2.326.002 3.49 0 .005 6.854 0 13.708.002 20.562-.01.99.045 1.988-.11 2.971-.184 1.348-.655 2.73-1.666 3.687-.705.658-1.648.976-2.569 1.193-1.193.277-2.421.322-3.64.351-.01-.904-.02-1.809.005-2.712 1.128-.1 2.32-.28 3.275-.936.97-.753 1.103-2.088 1.208-3.223z" />
    <path id="gf1cr" d="M291.813 39.873h3.494c.002 5.852-.002 11.704.001 17.558-1.164.006-2.329.001-3.493.001-.005-5.853-.003-11.707-.002-17.559z" />
    <style>
      .img-fill {
        fill: #ffffff;
      }
    </style>
  </defs>
  <g>
    <g transform="translate(-201 -23)">
      <g>
        <use class="img-fill" xlink:href="#gf1ca" />
      </g>
      <g>
        <g>
          <use class="img-fill" xlink:href="#gf1cb" />
        </g>
        <g>
          <use class="img-fill" xlink:href="#gf1cc" />
        </g>
      </g>
      <g>
        <use class="img-fill" xlink:href="#gf1cd" />
      </g>
      <g>
        <use class="img-fill" xlink:href="#gf1ce" />
      </g>
      <g>
        <use class="img-fill" xlink:href="#gf1cf" />
      </g>
      <g>
        <use class="img-fill" xlink:href="#gf1cg" />
      </g>
      <g>
        <use class="img-fill" xlink:href="#gf1ch" />
      </g>
      <g>
        <use class="img-fill" xlink:href="#gf1ci" />
      </g>
      <g>
        <use class="img-fill" xlink:href="#gf1cj" />
      </g>
      <g>
        <use class="img-fill" xlink:href="#gf1ck" />
      </g>
      <g>
        <use class="img-fill" xlink:href="#gf1cl" />
      </g>
      <g>
        <use class="img-fill" xlink:href="#gf1cm" />
      </g>
      <g>
        <use class="img-fill" xlink:href="#gf1cn" />
      </g>
      <g>
        <use class="img-fill" xlink:href="#gf1co" />
      </g>
      <g>
        <use class="img-fill" xlink:href="#gf1cp" />
      </g>
      <g>
        <use class="img-fill" xlink:href="#gf1cq" />
      </g>
      <g>
        <use class="img-fill" xlink:href="#gf1cr" />
      </g>
    </g>
  </g>
</svg>
